<svg width="281" height="183" viewBox="0 0 281 183" fill="none" xmlns="http://www.w3.org/2000/svg">
<path d="M243.363 64.2056C239.407 70.7465 234.299 76.5025 228.299 81.1858C226.282 82.7556 226.753 85.8429 229.164 86.7325C233.827 88.4593 237.94 91.3373 240.822 95.4973C252.14 111.823 249.363 130.687 236.735 141.781C234.875 143.403 232.831 144.79 230.683 145.941C228.273 147.197 227.172 150.022 228.273 152.508L237.652 173.413C238.857 176.107 242.001 177.206 244.647 175.872C255.598 170.351 265.083 161.717 271.947 150.389C274.645 145.941 276.741 141.153 278.156 136.156C286.723 106.251 274.252 77.4705 251.407 62.348C248.682 60.5427 245.04 61.4584 243.363 64.2317V64.2056Z" fill="#D3DE37"/>
<path d="M196.65 0C175.901 0 159.055 16.7971 159.055 37.5448C159.055 58.2926 175.875 75.0896 196.65 75.0896C217.426 75.0896 234.246 58.2926 234.246 37.5448C234.246 16.7971 217.4 0 196.65 0ZM196.65 51.4639C188.948 51.4639 182.713 45.2369 182.713 37.5448C182.713 29.8527 188.948 23.6258 196.65 23.6258C204.353 23.6258 210.588 29.8527 210.588 37.5448C210.588 45.2369 204.353 51.4639 196.65 51.4639Z" fill="#D3DE37"/>
<path d="M196.939 149.918C193.664 149.918 190.677 148.008 189.341 144.999L133.484 20.7216C131.127 15.4365 120.909 0 103.748 0C83.3917 0 63.559 6.12229 47.106 26.5038C37.7267 38.1204 32.5655 51.5685 32.2773 64.0747C12.0778 76.1885 0 95.7066 0 117.213C0 141.048 12.6542 162.947 34.7662 175.296C44.1717 180.555 54.9395 182.91 65.7335 182.91H65.8645L140.742 182.858C144.121 182.858 146.374 179.378 145.012 176.291L124.786 130.766C123.843 128.62 120.778 128.673 119.913 130.844L114.673 143.952C113.233 147.563 109.722 149.944 105.818 149.944H65.8121C60.3103 149.97 54.8085 148.74 50.0403 146.019C39.1677 139.818 32.9585 128.961 32.9323 117.161C32.9323 103.189 44.9577 93.3257 56.2233 88.7471C64.3188 85.4504 66.1265 76.8949 65.6026 68.1824C65.0262 58.8159 69.2442 51.804 72.7025 47.1207C75.8726 42.856 84.1253 34.85 97.4869 32.3906C100.29 31.8673 103.093 33.411 104.246 36.0012L165.84 173.072C168.486 178.985 174.381 182.779 180.879 182.779H215.095C216.274 182.779 217.453 182.727 218.605 182.648C221.54 182.491 223.347 179.352 222.168 176.683L212.16 154.418C210.903 151.644 208.152 149.839 205.087 149.839H196.912L196.939 149.918Z" fill="#F39800"/>
</svg>
