<svg width="1024" height="183" viewBox="0 0 1024 183" fill="none" xmlns="http://www.w3.org/2000/svg">
<g clip-path="url(#clip0_150_2419)">
<path d="M243.602 64.2062C239.642 70.7472 234.528 76.5032 228.523 81.1866C226.504 82.7564 226.976 85.8438 229.388 86.7333C234.056 88.4602 238.174 91.3382 241.058 95.4982C252.388 111.825 249.608 130.689 236.967 141.782C235.105 143.404 233.06 144.791 230.909 145.942C228.497 147.198 227.395 150.024 228.497 152.509L237.885 173.414C239.092 176.109 242.239 177.208 244.887 175.874C255.849 170.353 265.343 161.719 272.213 150.39C274.915 145.942 277.013 141.154 278.429 136.157C287.004 106.252 274.521 77.4713 251.653 62.3486C248.926 60.5433 245.281 61.459 243.602 64.2324V64.2062Z" fill="#D3DE37"/>
<path d="M196.843 0C176.073 0 159.211 16.7972 159.211 37.5452C159.211 58.2932 176.047 75.0904 196.843 75.0904C217.64 75.0904 234.476 58.2932 234.476 37.5452C234.476 16.7972 217.613 0 196.843 0ZM196.843 51.4644C189.133 51.4644 182.892 45.2374 182.892 37.5452C182.892 29.853 189.133 23.626 196.843 23.626C204.553 23.626 210.795 29.853 210.795 37.5452C210.795 45.2374 204.553 51.4644 196.843 51.4644Z" fill="#D3DE37"/>
<path d="M197.132 149.919C193.854 149.919 190.864 148.009 189.527 145L133.615 20.7218C131.255 15.4367 121.027 0 103.85 0C83.4736 0 63.6214 6.12235 47.1522 26.504C37.7637 38.1208 32.5974 51.569 32.309 64.0754C12.0896 76.1893 0 95.7075 0 117.214C0 141.05 12.6666 162.949 34.8003 175.298C44.215 180.557 54.9934 182.912 65.798 182.912H65.9292L140.88 182.859C144.263 182.859 146.518 179.38 145.154 176.292L124.909 130.767C123.965 128.622 120.896 128.674 120.031 130.846L114.786 143.954C113.344 147.564 109.829 149.945 105.922 149.945H65.8767C60.3695 149.971 54.8623 148.742 50.0894 146.021C39.2061 139.82 32.9908 128.962 32.9646 117.162C32.9646 103.19 45.0018 93.3266 56.2784 88.7479C64.3819 85.4513 66.1914 76.8957 65.6669 68.1831C65.09 58.8164 69.3122 51.8045 72.7738 47.1212C75.947 42.8565 84.2079 34.8503 97.5825 32.3909C100.389 31.8676 103.195 33.4113 104.349 36.0015L166.003 173.074C168.652 178.987 174.552 182.781 181.056 182.781H215.306C216.486 182.781 217.666 182.729 218.82 182.65C221.757 182.493 223.566 179.353 222.386 176.685L212.368 154.419C211.11 151.646 208.356 149.841 205.288 149.841H197.106L197.132 149.919Z" fill="#F39800"/>
<path d="M547.967 18.6025C547.417 23.2074 546.132 28.3878 544.27 34.1177C543.719 35.7922 543.168 37.2574 542.617 38.7487H580.591V14.8611C580.591 11.5383 581.509 5.52056 589.822 5.4159C598.135 5.33741 599.997 11.5121 600.024 14.8349V38.6964L655.935 38.6441C659.265 38.6441 664.589 41.1819 664.642 47.3305C664.694 53.479 659.449 56.7495 655.935 56.7495L600.05 56.8018V95.5505H639.099C643.767 95.5244 649.3 98.5332 649.326 104.185C649.326 110.49 643.347 113.604 640.2 113.604H600.076V150.416L662.806 150.364C668.313 150.364 672.404 154.288 672.404 158.919C672.404 165.146 666.976 168.312 663.829 168.312L515.186 168.417C510.44 168.417 505.273 166.167 505.273 159.181C505.273 152.195 512.197 150.495 515.16 150.495L580.643 150.442V113.656H538.081C535.117 113.682 528.299 111.746 528.299 104.289C528.299 96.8326 535.091 95.6028 538.054 95.6028H580.591V56.828H535.563C531.865 65.7237 528.168 73.3112 524.837 79.2243C523.368 82.5471 517.468 86.3932 511.358 82.8087C505.247 79.2242 506.926 72.9972 508.919 68.6802C518.176 51.6737 524.994 33.7776 530.528 14.9134C531.629 11.5906 536.743 8.79104 541.883 10.4132C547.076 12.0615 547.941 15.4628 547.941 18.6025H547.967Z" fill="#593E41"/>
<path d="M368.091 18.7071C367.541 23.312 366.256 28.4924 364.394 34.2223C363.843 35.8968 363.292 37.362 362.742 38.8533H400.715V14.9919C400.715 11.6691 401.633 5.65136 409.946 5.5467C418.259 5.46821 420.121 11.6429 420.148 14.9657V38.8272L476.059 38.7748C479.389 38.7748 484.713 41.3127 484.766 47.4613C484.818 53.6098 479.573 56.8803 476.059 56.8803L420.174 56.9326V95.6813H459.223C463.891 95.6552 469.424 98.664 469.45 104.315C469.45 110.621 463.471 113.734 460.324 113.734H420.2V150.547L482.93 150.495C488.437 150.495 492.528 154.419 492.528 159.05C492.528 165.277 487.1 168.443 483.953 168.443L335.31 168.548C330.564 168.548 325.397 166.298 325.397 159.312C325.397 152.326 332.321 150.625 335.284 150.625L400.768 150.573V113.787H358.205C355.241 113.813 348.423 111.877 348.423 104.42C348.423 96.9634 355.215 95.7336 358.178 95.7336H400.715V56.9588H355.687C351.989 65.8545 348.292 73.442 344.961 79.355C343.492 82.6779 337.592 86.524 331.482 82.9395C325.371 79.3551 327.05 73.128 329.043 68.811C338.3 51.8045 345.118 33.9084 350.652 15.0442C351.753 11.7214 356.867 8.92184 362.007 10.544C367.2 12.1923 368.065 15.5936 368.065 18.7333L368.091 18.7071Z" fill="#593E41"/>
<path d="M717.983 8.79104C720.212 9.88993 721.497 12.1139 721.497 15.2535C721.13 18.0269 720.763 20.6171 720.212 23.0242C718.009 32.2601 714.678 42.0454 710.614 52.7726L710.692 165.513C710.692 168.469 708.175 174.199 701.435 174.199C694.695 174.199 692.728 168.469 692.728 165.513L692.676 85.9745C692.125 87.0734 687.116 105.048 675.367 98.0884C673.427 96.9372 669.939 91.8352 675.236 83.6721C688.191 61.1188 698.183 37.4667 704.818 12.5063C705.919 9.5498 707.965 7.69216 710.561 7.32587C713.525 7.32587 716.121 7.87531 717.956 8.79104H717.983ZM827.865 10.2039C830.094 10.2039 835.26 11.4336 835.575 16.6664C835.889 21.8992 830.094 23.8876 827.891 23.8876H772.871L770.485 29.6437H812.681C820.836 29.6437 825.085 32.574 825.085 38.3039V75.0904C825.111 75.8229 824.927 76.1892 824.927 76.5555H828.625C836.414 76.5555 840.295 79.669 840.295 85.9745V94.661C840.295 97.6175 837.568 102.615 831.589 102.615C830.277 102.615 829.176 102.615 828.258 102.248C833.634 108.162 836.414 112.583 836.598 115.54C836.598 117.581 836.388 118.549 834.762 120.354C833.136 122.133 828.179 123.651 823.642 118.522C820.312 114.441 816.614 110.385 812.707 106.33V106.879C812.707 110.202 811.815 113.525 809.743 116.115C807.331 119.15 803.449 120.563 796.788 120.746H763.64C762.906 120.746 762.539 120.746 762.172 120.589C762.093 123.31 760.493 125.037 759.208 126.502H815.696C818.66 126.476 820.889 127.026 822.357 128.125C824.586 129.799 825.872 131.631 825.898 133.671C825.898 136.994 824.219 139.951 820.889 142.541C815.723 146.989 808.668 151.227 799.778 155.309C800.67 154.89 803.659 155.937 804.708 156.094C806.308 156.329 807.881 156.565 809.481 156.8C812.523 157.219 815.591 157.559 818.66 157.794C824.01 158.187 830.094 159.39 835.024 156.696C836.519 155.884 838.145 154.733 839.797 155.204C841.423 155.649 842.236 157.48 842.655 159.129C843.573 162.739 843.521 169.594 840.138 172.08C838.276 173.467 835.47 174.173 833.162 174.173C821.492 174.173 811.5 173.257 803.344 171.609C793.903 169.751 785.197 167.37 777.041 164.231C775.284 164.78 755.222 171.687 733.272 173.99C731.41 174.199 729.39 174.278 727.817 175.507C726.952 176.188 726.27 177.208 725.195 177.47C724.486 177.653 723.752 177.47 723.07 177.208C721.366 176.528 719.976 175.193 719.005 173.65C717.222 170.85 715.701 166.769 717.432 163.603C718.953 160.829 722.231 159.678 725.221 159.443C735.947 158.501 743.342 157.245 757.215 154.655C756.848 154.472 747.381 149.657 741.847 145.419C740.248 146.779 737.599 148.925 735.003 150.783C732.957 152.457 730.938 153.19 728.892 153.19C726.48 153.19 724.434 152.274 722.598 150.416C720.92 148.559 719.451 143.352 723.962 139.794C725.404 138.642 736.104 131.186 749.636 115.644C750.921 114.546 752.232 113.787 753.517 113.604C752.967 111.772 752.783 109.548 752.757 106.958V98.7948C752.757 93.9807 755.353 90.5271 760.729 90.5271C765.922 90.5271 768.701 94.0068 768.701 98.7948V105.676C768.701 108.083 769.829 109.182 772.242 109.182H794.087C797.811 109.182 798.336 106.696 798.729 105.283C799.673 102.039 800.932 100.469 804.813 100.469C805.547 100.469 806.282 100.652 806.859 100.836C805.574 99.7367 804.813 98.6117 804.813 97.696C804.813 95.472 805.731 93.6406 807.567 92.3324C808.668 91.5736 811.894 90.2654 815.723 91.7829C819.551 93.3004 821.912 96.2046 823.144 97.3297C822.961 96.5971 822.961 95.8383 822.961 94.7394V89.7421C822.961 88.8264 822.226 88.2508 820.731 88.2508H786.325C787.426 89.7683 789.314 91.7829 792.173 95.1842C795.057 98.6117 793.851 102.458 790.861 104.394C787.846 106.304 783.466 104.08 781.525 101.961C779.296 99.3705 776.7 96.6232 771.875 91.4428C770.091 89.9776 770.59 88.277 770.59 88.277H738.307C736.838 88.277 736.078 88.8526 736.078 89.7683V94.9488C736.445 94.9488 739.513 93.3789 743.027 95.4982C744.968 96.6756 746.069 99.8414 744.758 103.975C744.076 106.121 739.802 114.519 738.333 116.377C736.471 119.334 731.541 123.232 727.109 120.799C723.542 118.836 722.284 114.755 724.801 111.04C726.27 109.208 727.581 107.167 728.682 104.943H727.397C720.92 104.943 718.691 99.9722 718.691 96.9895V86.0792C718.691 79.7999 722.572 76.6602 730.361 76.634H734.059C733.875 75.9014 733.875 75.352 733.875 74.5932V38.3562C733.849 32.6264 737.73 29.6698 745.519 29.6698H751.839L754.252 23.9399H732.905C730.676 23.9399 725.247 22.2131 725.562 16.7449C725.876 11.2766 730.676 10.2824 732.905 10.2824L827.97 10.2039H827.865ZM806.911 42.6995C806.911 41.7837 805.81 40.5278 803.948 40.5278H754.12C752.652 40.554 751.891 41.8099 751.891 42.7256L751.734 76.5817H806.937V42.6995H806.911ZM776.595 149.579C786.036 146.806 794.166 144.268 801.325 140.683C804 139.323 802.846 138.669 801.928 138.669H755.484C760.624 142.41 766.603 146.073 776.595 149.579V149.579Z" fill="#593E41"/>
<path d="M951.436 151.489C952.17 152.222 952.747 152.797 953.114 153.53C959.592 140.945 964.575 126.162 968.272 109.339C971.603 93.065 973.255 71.2704 973.229 51.1242H966.515C963.552 51.1242 957.809 49.2666 957.809 41.7052C957.809 34.1439 964.601 33.0188 967.538 33.0188H973.203V15.2274C973.203 12.6371 974.802 5.65137 982.355 5.65137C989.908 5.65137 991.35 12.611 991.35 15.2012C991.35 23.7045 991.167 25.9546 991.167 32.9665H1005.8C1017.65 32.9665 1023.76 39.7953 1023.97 53.2697C1024 102.432 1023.11 136.628 1021.64 148.637C1020.72 157.507 1018.68 163.603 1015.37 167.109C1011.49 171.19 1005.35 173.571 997.224 173.964C990.38 173.781 976.297 171.374 976.297 160.123C976.297 153.687 982.827 151.044 987.731 153.242C991.429 155.1 993.002 155.623 997.224 155.126C1001.45 154.629 1004.25 150.678 1004.62 143.666C1005.35 131.657 1005.88 100.234 1005.85 56.8018C1005.85 54.3947 1005.3 52.7464 1004.36 51.9876C1003.62 51.4382 1002.52 51.0719 1000.84 51.0719H991.009V52.7464C991.193 67.1627 990.118 86.0269 987.705 102.301C983.64 128.543 977.582 148.951 967.223 168.182C965.073 172.08 957.389 176.161 950.728 170.876C948.866 169.411 948.132 167.187 948.132 164.597V164.414C947.765 164.414 947.397 164.597 947.397 164.597L869.693 171.844C866.73 171.661 861.931 169.28 861.721 163.917C861.511 158.553 866.546 155.963 868.959 155.963L899.511 153.373V141.547H872.63C870.034 141.547 865.419 139.977 865.419 134.352C865.419 128.726 870.034 127.13 872.63 127.13H899.511V119.177H876.145C867.989 119.177 863.924 115.121 863.924 106.801V69.282C863.898 61.145 867.962 57.0634 876.118 57.0634H899.458V49.1096H867.385C864.789 49.1096 859.413 47.095 859.413 41.1819C859.413 35.2689 864.763 33.2281 867.359 33.2281H899.406V25.6406C889.755 26.3732 880.314 26.8965 869.562 26.7656C863.714 26.6871 861.59 23.0765 861.59 17.3466C861.957 13.6575 864.737 10.858 868.802 10.8841C896.023 10.9365 918.55 9.00035 941.707 6.59327C943.569 6.59327 944.854 6.30546 945.798 6.41012C951.62 7.01189 953.009 12.3232 953.009 14.3639C953.009 17.6868 951.069 20.9049 947.266 21.559C941.13 22.6056 932.895 23.8091 918.262 24.5417V33.2281H946.532C949.312 33.2281 954.504 34.9026 954.504 41.1558C954.504 47.409 949.312 49.1096 946.532 49.1096H918.288V57.0634H942.1C950.256 57.0634 954.504 61.0927 954.504 69.2296V106.749C954.53 115.069 950.282 119.124 942.126 119.15H918.314V127.104H944.355C946.952 127.104 951.593 128.753 951.593 134.299C951.593 139.846 946.952 141.494 944.355 141.494H918.34V151.855L945.116 149.422C948.079 149.422 950.125 150.155 951.41 151.463L951.436 151.489ZM899.432 71.5059H886.267C883.671 71.5059 882.57 72.8141 882.57 75.038V101.097C882.57 103.687 883.697 104.786 886.294 104.786H899.458V71.5059H899.432ZM935.649 74.9857C935.649 72.7618 934.337 71.4797 932.108 71.4797H918.314V104.76H932.135C934.364 104.76 935.649 103.635 935.649 101.045V74.9857V74.9857Z" fill="#593E41"/>
<path d="M925.683 80.1923H892.299C889.703 80.1923 884.353 82.2331 884.353 88.1461C884.353 94.0592 889.729 96.1 892.325 96.1H925.683C928.279 96.1 933.656 94.0854 933.656 88.1461C933.656 82.2069 928.306 80.1923 925.709 80.1923H925.683Z" fill="#593E41"/>
<path d="M794.9 45.97H750.842C749.138 45.97 745.597 47.3043 745.597 51.2028C745.597 55.1012 749.138 56.4355 750.842 56.4355H794.9C796.605 56.4355 800.145 55.1012 800.145 51.2028C800.145 47.3043 796.605 45.97 794.9 45.97Z" fill="#593E41"/>
<path d="M794.821 60.6479H750.764C749.059 60.6479 745.519 61.9822 745.519 65.8807C745.519 69.7791 749.059 71.1134 750.764 71.1134H794.821C796.526 71.1134 800.066 69.7791 800.066 65.8807C800.066 61.9822 796.526 60.6479 794.821 60.6479Z" fill="#593E41"/>
</g>
<defs>
<clipPath id="clip0_150_2419">
<rect width="1024" height="182.912" fill="white"/>
</clipPath>
</defs>
</svg>
